<svg width="60" height="70" viewBox="0 0 60 70" fill="none" xmlns="http://www.w3.org/2000/svg">
<path d="M9.375 59.0625C9.375 58.4823 9.57254 57.9259 9.92418 57.5157C10.2758 57.1055 10.7527 56.875 11.25 56.875H48.75C49.2473 56.875 49.7242 57.1055 50.0758 57.5157C50.4275 57.9259 50.625 58.4823 50.625 59.0625C50.625 59.6427 50.4275 60.1991 50.0758 60.6093C49.7242 61.0195 49.2473 61.25 48.75 61.25H11.25C10.7527 61.25 10.2758 61.0195 9.92418 60.6093C9.57254 60.1991 9.375 59.6427 9.375 59.0625ZM52.4663 13.125L52.5563 13.1294C53.2569 13.185 53.9419 13.3974 54.5738 13.755C55.0288 14.0021 55.4196 14.3855 55.7062 14.8663C55.9575 15.3038 56.25 16.0781 56.25 17.5V43.7106L56.2463 43.8156C56.1982 44.633 56.0161 45.432 55.71 46.1694C55.4981 46.7002 55.1694 47.156 54.7575 47.4906C54.3825 47.7837 53.7188 48.125 52.5 48.125H7.53375L7.44375 48.1206C6.74314 48.0645 6.05826 47.8522 5.42625 47.495C4.97128 47.2477 4.58053 46.8643 4.29375 46.3838C4.0425 45.9463 3.75 45.1719 3.75 43.75V17.5394L3.75375 17.4344C3.80145 16.6169 3.98351 15.8178 4.29 15.0806C4.50195 14.5498 4.83058 14.094 5.2425 13.7594C5.6175 13.4662 6.28125 13.125 7.5 13.125H52.4663ZM52.5 8.75H7.5C0 8.75 0 17.5 0 17.5V43.75C0 52.5 7.5 52.5 7.5 52.5H52.5C60 52.5 60 43.75 60 43.75V17.5C60 8.75 52.5 8.75 52.5 8.75Z" fill="white"/>
</svg>
