<svg width="50" height="50" viewBox="0 0 50 50" fill="none" xmlns="http://www.w3.org/2000/svg">
<path d="M25 16.6667C20.4833 16.6667 16.6666 20.4833 16.6666 25C16.6666 29.5167 20.4833 33.3333 25 33.3333C29.5166 33.3333 33.3333 29.5167 33.3333 25C33.3333 20.4833 29.5166 16.6667 25 16.6667ZM25 29.1667C22.7812 29.1667 20.8333 27.2188 20.8333 25C20.8333 22.7813 22.7812 20.8333 25 20.8333C27.2187 20.8333 29.1666 22.7813 29.1666 25C29.1666 27.2188 27.2187 29.1667 25 29.1667Z" fill="white"/>
<path d="M41.6666 10.4167H36.2791L30.6395 4.77709C30.4464 4.58325 30.2168 4.42953 29.9641 4.32477C29.7113 4.22001 29.4403 4.16628 29.1666 4.16667H20.8333C20.5597 4.16628 20.2887 4.22001 20.0359 4.32477C19.7831 4.42953 19.5535 4.58325 19.3604 4.77709L13.7208 10.4167H8.33329C6.03538 10.4167 4.16663 12.2854 4.16663 14.5833V37.5C4.16663 39.7979 6.03538 41.6667 8.33329 41.6667H41.6666C43.9645 41.6667 45.8333 39.7979 45.8333 37.5V14.5833C45.8333 12.2854 43.9645 10.4167 41.6666 10.4167ZM8.33329 37.5V14.5833H14.5833C15.1375 14.5833 15.6666 14.3646 16.0562 13.9729L21.6958 8.33334H28.3041L33.9437 13.9729C34.1368 14.1668 34.3664 14.3205 34.6192 14.4252C34.872 14.53 35.143 14.5837 35.4166 14.5833H41.6666L41.6708 37.5H8.33329Z" fill="white"/>
</svg>
