<svg width="65" height="65" viewBox="0 0 65 65" fill="none" xmlns="http://www.w3.org/2000/svg">
<path d="M46.1236 18.8764C45.857 18.6097 45.5214 18.4224 45.1544 18.3356C44.7874 18.2487 44.4035 18.2658 44.0456 18.3849L25.7644 24.4786C25.465 24.5784 25.1929 24.7466 24.9697 24.9698C24.7466 25.1929 24.5784 25.465 24.4786 25.7644L18.3848 44.0456C18.2655 44.4035 18.2482 44.7876 18.3348 45.1548C18.4215 45.522 18.6087 45.8578 18.8755 46.1246C19.1422 46.3913 19.478 46.5785 19.8452 46.6652C20.2124 46.7519 20.5965 46.7345 20.9544 46.6152L39.2356 40.5214C39.535 40.4216 39.8071 40.2535 40.0303 40.0303C40.2534 39.8071 40.4216 39.5351 40.5214 39.2356L46.6152 20.9544C46.7342 20.5965 46.7513 20.2126 46.6644 19.8456C46.5776 19.4786 46.3904 19.143 46.1236 18.8764ZM23.5239 41.4781L28.013 28.015L36.9891 36.9911L23.5239 41.4781Z" fill="white"/>
<path d="M32.5 60.9375C26.8756 60.9375 21.3775 59.2697 16.701 56.1449C12.0245 53.0202 8.37956 48.5788 6.22719 43.3826C4.07482 38.1863 3.51166 32.4685 4.60893 26.9521C5.7062 21.4358 8.41461 16.3687 12.3917 12.3917C16.3687 8.41461 21.4358 5.7062 26.9521 4.60893C32.4685 3.51166 38.1863 4.07482 43.3826 6.22719C48.5788 8.37956 53.0202 12.0245 56.1449 16.701C59.2697 21.3775 60.9375 26.8756 60.9375 32.5C60.9289 40.0395 57.9301 47.2677 52.5989 52.5989C47.2677 57.9301 40.0395 60.9289 32.5 60.9375ZM32.5 8.12501C27.6791 8.12501 22.9664 9.55458 18.958 12.2329C14.9495 14.9113 11.8253 18.7182 9.98045 23.1721C8.13556 27.6261 7.65286 32.5271 8.59337 37.2553C9.53389 41.9836 11.8554 46.3268 15.2643 49.7357C18.6732 53.1446 23.0164 55.4661 27.7447 56.4067C32.473 57.3472 37.374 56.8645 41.8279 55.0196C46.2819 53.1747 50.0887 50.0505 52.7671 46.042C55.4454 42.0336 56.875 37.3209 56.875 32.5C56.8675 26.0377 54.297 19.8422 49.7274 15.2726C45.1579 10.703 38.9624 8.13254 32.5 8.12501Z" fill="white"/>
</svg>
