<svg width="50" height="50" viewBox="0 0 50 50" fill="none" xmlns="http://www.w3.org/2000/svg">
<path d="M4.16672 17.5C4.16646 16.0049 4.46421 14.5248 5.04256 13.1461C5.62091 11.7675 6.46825 10.5179 7.53508 9.47048C8.6019 8.42305 9.86681 7.59877 11.2559 7.04582C12.6449 6.49286 14.1302 6.22232 15.6251 6.25001C17.3937 6.24061 19.1442 6.60723 20.7604 7.32557C22.3767 8.04391 23.8218 9.09755 25.0001 10.4167C26.1783 9.09755 27.6234 8.04391 29.2397 7.32557C30.8559 6.60723 32.6064 6.24061 34.3751 6.25001C35.8699 6.22232 37.3552 6.49286 38.7442 7.04582C40.1333 7.59877 41.3982 8.42305 42.465 9.47048C43.5318 10.5179 44.3792 11.7675 44.9576 13.1461C45.5359 14.5248 45.8336 16.0049 45.8334 17.5C45.8334 28.6583 32.5438 37.0833 25.0001 43.75C17.473 37.0271 4.16672 28.6667 4.16672 17.5Z" fill="#F5F5F5"/>
</svg>
