<svg width="65" height="65" viewBox="0 0 65 65" fill="none" xmlns="http://www.w3.org/2000/svg">
<path d="M59.6256 27.479L34.4142 4.28451C33.5946 3.53048 32.5153 3.1224 31.4019 3.14559C30.2884 3.16878 29.227 3.62143 28.4395 4.40893L5.25243 27.5962L4.0625 28.786V62.9687H26.4062V41.6406H38.5938V62.9687H60.9375V28.686L59.6256 27.479ZM31.4892 7.20723C31.525 7.20723 31.5029 7.21497 31.4875 7.23008C31.4717 7.21497 31.4534 7.20723 31.4892 7.20723ZM56.875 58.9062H42.6562V41.6406C42.6562 40.5632 42.2282 39.5298 41.4664 38.768C40.7045 38.0061 39.6712 37.5781 38.5938 37.5781H26.4062C25.3288 37.5781 24.2955 38.0061 23.5336 38.768C22.7718 39.5298 22.3438 40.5632 22.3438 41.6406V58.9062H8.125V30.4687L31.4892 7.28149C31.4908 7.27997 31.491 7.27857 31.4922 7.27705L56.875 30.4687V58.9062Z" fill="white"/>
</svg>
