<svg width="50" height="50" viewBox="0 0 50 50" fill="none" xmlns="http://www.w3.org/2000/svg">
<path d="M26.9584 45.8333H23.0209C22.0926 45.8333 21.2024 45.4646 20.546 44.8082C19.8896 44.1518 19.5209 43.2616 19.5209 42.3333V40.0625C19.5096 39.9287 19.4605 39.8009 19.3793 39.6939C19.2982 39.587 19.1883 39.5053 19.0625 39.4583C18.935 39.3767 18.7868 39.3333 18.6354 39.3333C18.484 39.3333 18.3358 39.3767 18.2084 39.4583L16.6667 41.125C16.3433 41.4507 15.9587 41.7091 15.535 41.8855C15.1113 42.0619 14.6569 42.1527 14.1979 42.1527C13.739 42.1527 13.2846 42.0619 12.8609 41.8855C12.4372 41.7091 12.0526 41.4507 11.7292 41.125L8.87502 38.3333C8.54464 38.0106 8.28226 37.625 8.10335 37.1992C7.92445 36.7734 7.83264 36.316 7.83335 35.8542C7.83469 34.9094 8.20907 34.0034 8.87502 33.3333L10.4167 31.7917C10.4911 31.6769 10.5307 31.543 10.5307 31.4063C10.5307 31.2695 10.4911 31.1356 10.4167 31.0208C10.2917 30.7083 10.0834 30.4792 9.79169 30.4792H7.66669C6.73652 30.4737 5.84632 30.1003 5.19054 29.4406C4.53475 28.7809 4.16667 27.8885 4.16669 26.9583V23.0208C4.16669 22.0926 4.53544 21.2023 5.19181 20.546C5.84819 19.8896 6.73843 19.5208 7.66669 19.5208H9.93752C10.0713 19.5096 10.1991 19.4605 10.3061 19.3793C10.4131 19.2982 10.4948 19.1883 10.5417 19.0625C10.6234 18.935 10.6668 18.7868 10.6668 18.6354C10.6668 18.484 10.6234 18.3358 10.5417 18.2083L8.87502 16.6667C8.54936 16.3433 8.2909 15.9587 8.11453 15.535C7.93816 15.1113 7.84736 14.6569 7.84736 14.1979C7.84736 13.739 7.93816 13.2846 8.11453 12.8609C8.2909 12.4372 8.54936 12.0526 8.87502 11.7292L11.6667 8.87501C11.9863 8.54619 12.3684 8.28464 12.7906 8.10575C13.2128 7.92685 13.6665 7.83423 14.125 7.83334C14.5964 7.83127 15.0635 7.92221 15.4996 8.10096C15.9358 8.27971 16.3324 8.54275 16.6667 8.87501L18.2084 10.4167C18.3231 10.4911 18.457 10.5307 18.5938 10.5307C18.7306 10.5307 18.8644 10.4911 18.9792 10.4167C19.2917 10.2917 19.5209 10.0833 19.5209 9.79167V7.66667C19.5264 6.7365 19.8997 5.84631 20.5594 5.19052C21.2191 4.53474 22.1115 4.16666 23.0417 4.16667H27.0834C28.0116 4.16667 28.9019 4.53542 29.5582 5.1918C30.2146 5.84818 30.5834 6.73841 30.5834 7.66667V9.93751C30.5946 10.0713 30.6437 10.1991 30.7249 10.3061C30.806 10.4131 30.9159 10.4948 31.0417 10.5417C31.1692 10.6233 31.3174 10.6668 31.4688 10.6668C31.6202 10.6668 31.7684 10.6233 31.8959 10.5417L33.3334 8.87501C33.6567 8.54935 34.0414 8.29089 34.4651 8.11452C34.8888 7.93814 35.3432 7.84734 35.8021 7.84734C36.261 7.84734 36.7155 7.93814 37.1392 8.11452C37.5629 8.29089 37.9475 8.54935 38.2709 8.87501L41.125 11.6667C41.4545 11.9901 41.7162 12.3759 41.8951 12.8015C42.0739 13.2272 42.1662 13.6842 42.1667 14.1458C42.1767 14.6152 42.0894 15.0816 41.9101 15.5154C41.7308 15.9493 41.4635 16.3413 41.125 16.6667L39.5834 18.2083C39.5089 18.3231 39.4693 18.457 39.4693 18.5938C39.4693 18.7305 39.5089 18.8644 39.5834 18.9792C39.7084 19.2917 39.9167 19.5208 40.2084 19.5208H42.4792C43.3838 19.5637 44.2371 19.9535 44.8617 20.6092C45.4864 21.2649 45.8344 22.1361 45.8334 23.0417V27.0833C45.8334 28.0116 45.4646 28.9018 44.8082 29.5582C44.1519 30.2146 43.2616 30.5833 42.3334 30.5833H40.0625C39.9287 30.5946 39.8009 30.6437 39.6939 30.7248C39.587 30.806 39.5053 30.9159 39.4584 31.0417C39.3839 31.1564 39.3443 31.2903 39.3443 31.4271C39.3443 31.5639 39.3839 31.6977 39.4584 31.8125L41.0625 33.4167C41.3882 33.7401 41.6466 34.1247 41.823 34.5484C41.9994 34.9721 42.0902 35.4265 42.0902 35.8854C42.0902 36.3444 41.9994 36.7988 41.823 37.2225C41.6466 37.6462 41.3882 38.0308 41.0625 38.3542L38.3334 41.125C38.0138 41.4538 37.6316 41.7154 37.2095 41.8943C36.7873 42.0732 36.3335 42.1658 35.875 42.1667C34.9447 42.1545 34.0557 41.7809 33.3959 41.125L31.7917 39.5833C31.6769 39.5089 31.5431 39.4693 31.4063 39.4693C31.2695 39.4693 31.1356 39.5089 31.0209 39.5833C30.7084 39.7083 30.4792 39.9167 30.4792 40.2083V42.4792C30.4363 43.3838 30.0465 44.2371 29.3908 44.8617C28.7351 45.4864 27.864 45.8344 26.9584 45.8333ZM23.6875 41.6667H26.3125V40.0625C26.3214 39.1018 26.6152 38.1653 27.1566 37.3717C27.6981 36.578 28.4629 35.9629 29.3542 35.6042C30.2491 35.213 31.2403 35.0972 32.2013 35.2716C33.1623 35.446 34.0496 35.9026 34.75 36.5833L35.875 37.7083L37.7084 35.875L36.5834 34.7292C35.907 34.0393 35.4508 33.1641 35.2727 32.2145C35.0947 31.2649 35.2028 30.2839 35.5834 29.3958C35.9453 28.5084 36.5618 27.748 37.3552 27.2105C38.1486 26.6729 39.0834 26.3822 40.0417 26.375H41.6667V23.6875H40.0625C39.1018 23.6786 38.1653 23.3849 37.3717 22.8434C36.578 22.3019 35.9629 21.5371 35.6042 20.6458C35.213 19.7509 35.0972 18.7597 35.2716 17.7987C35.446 16.8377 35.9027 15.9504 36.5834 15.25L37.7084 14.125L35.875 12.2917L34.7292 13.4167C34.0286 14.0566 33.1598 14.483 32.225 14.6457C31.2902 14.8085 30.3284 14.7007 29.4528 14.3351C28.5772 13.9696 27.8243 13.3614 27.2827 12.5823C26.7411 11.8032 26.4334 10.8856 26.3959 9.93751V8.33334H23.6875V9.93751C23.6786 10.8982 23.3849 11.8347 22.8434 12.6284C22.302 13.422 21.5371 14.0371 20.6459 14.3958C19.7509 14.787 18.7597 14.9028 17.7987 14.7284C16.8377 14.554 15.9504 14.0974 15.25 13.4167L14.125 12.2917L12.2917 14.125L13.4167 15.2708C14.0566 15.9714 14.483 16.8402 14.6458 17.775C14.8085 18.7098 14.7007 19.6716 14.3351 20.5472C13.9696 21.4228 13.3614 22.1758 12.5823 22.7173C11.8032 23.2589 10.8856 23.5666 9.93752 23.6042H8.33335V26.2292H9.93752C10.8982 26.238 11.8347 26.5318 12.6284 27.0733C13.422 27.6147 14.0372 28.3795 14.3959 29.2708C14.787 30.1658 14.9028 31.1569 14.7284 32.118C14.554 33.079 14.0974 33.9662 13.4167 34.6667L12.2917 35.7917L14.125 37.625L15.2709 36.5C15.9714 35.8601 16.8403 35.4337 17.775 35.2709C18.7098 35.1082 19.6717 35.216 20.5473 35.5816C21.4228 35.9471 22.1758 36.5552 22.7173 37.3344C23.2589 38.1134 23.5666 39.0311 23.6042 39.9792L23.6875 41.6667Z" fill="white"/>
<path d="M25 32.2917C23.5579 32.2917 22.1481 31.864 20.949 31.0628C19.7499 30.2616 18.8153 29.1228 18.2634 27.7904C17.7115 26.458 17.5671 24.9919 17.8485 23.5775C18.1298 22.163 18.8243 20.8638 19.8441 19.844C20.8638 18.8243 22.1631 18.1298 23.5775 17.8484C24.992 17.5671 26.4581 17.7115 27.7904 18.2634C29.1228 18.8153 30.2616 19.7499 31.0628 20.949C31.8641 22.1481 32.2917 23.5578 32.2917 25C32.2917 26.9339 31.5235 28.7885 30.156 30.156C28.7886 31.5234 26.9339 32.2917 25 32.2917ZM25 21.875C24.382 21.875 23.7778 22.0583 23.2639 22.4017C22.75 22.745 22.3494 23.2331 22.1129 23.8041C21.8764 24.3751 21.8145 25.0035 21.9351 25.6097C22.0557 26.2159 22.3533 26.7727 22.7903 27.2097C23.2274 27.6468 23.7842 27.9444 24.3904 28.065C24.9966 28.1855 25.6249 28.1237 26.1959 27.8871C26.767 27.6506 27.255 27.2501 27.5984 26.7362C27.9418 26.2223 28.125 25.6181 28.125 25C28.125 24.1712 27.7958 23.3763 27.2098 22.7903C26.6237 22.2042 25.8288 21.875 25 21.875Z" fill="white"/>
</svg>
