<svg width="40" height="50" viewBox="0 0 40 50" fill="none" xmlns="http://www.w3.org/2000/svg">
<path d="M20 25C26.3125 25 31.4286 19.4043 31.4286 12.5C31.4286 5.5957 26.3125 0 20 0C13.6875 0 8.57143 5.5957 8.57143 12.5C8.57143 19.4043 13.6875 25 20 25ZM28 28.125H26.5089C24.5268 29.1211 22.3214 29.6875 20 29.6875C17.6786 29.6875 15.4821 29.1211 13.4911 28.125H12C5.375 28.125 0 34.0039 0 41.25V45.3125C0 47.9004 1.91964 50 4.28571 50H35.7143C38.0804 50 40 47.9004 40 45.3125V41.25C40 34.0039 34.625 28.125 28 28.125Z" fill="#F5F5F5"/>
</svg>
