<svg width="70" height="70" viewBox="0 0 70 70" fill="none" xmlns="http://www.w3.org/2000/svg">
<path d="M23.3333 11.6667H46.6667V17.4913H52.5V11.6667C54.0471 11.6667 55.5308 12.2813 56.6248 13.3752C57.7187 14.4692 58.3333 15.9529 58.3333 17.5V52.5C58.3333 54.0471 57.7187 55.5308 56.6248 56.6248C55.5308 57.7188 54.0471 58.3333 52.5 58.3333V52.4913H46.6667V58.3333H23.3333V52.4913H17.5V58.3333C15.9529 58.3333 14.4692 57.7188 13.3752 56.6248C12.2812 55.5308 11.6667 54.0471 11.6667 52.5V17.5C11.6667 15.9529 12.2812 14.4692 13.3752 13.3752C14.4692 12.2813 15.9529 11.6667 17.5 11.6667V17.4913H23.3333V11.6667ZM29.1667 43.75L42.2917 35L29.1667 26.25V43.75ZM52.5 46.6579V37.9079H46.6667V46.6579H52.5ZM52.5 32.0746V23.3246H46.6667V32.0746H52.5ZM23.3333 46.6579V37.9079H17.5V46.6579H23.3333ZM23.3333 32.0746V23.3246H17.5V32.0746H23.3333Z" fill="white"/>
</svg>
