<svg width="65" height="65" viewBox="0 0 65 65" fill="none" xmlns="http://www.w3.org/2000/svg">
<path d="M52.2437 46.8271L48.75 43.3333V29.7916C48.75 21.4771 44.3083 14.5166 36.5625 12.675V10.8333C36.5625 8.5854 34.7479 6.77081 32.5 6.77081C30.2521 6.77081 28.4375 8.5854 28.4375 10.8333V12.675C20.6646 14.5166 16.25 21.45 16.25 29.7916V43.3333L12.7562 46.8271C11.05 48.5333 12.2417 51.4583 14.6521 51.4583H50.3208C52.7583 51.4583 53.95 48.5333 52.2437 46.8271ZM43.3333 46.0416H21.6667V29.7916C21.6667 23.075 25.7562 17.6041 32.5 17.6041C39.2437 17.6041 43.3333 23.075 43.3333 29.7916V46.0416ZM32.5 59.5833C35.4792 59.5833 37.9167 57.1458 37.9167 54.1666H27.0833C27.0833 55.6032 27.654 56.981 28.6698 57.9968C29.6856 59.0126 31.0634 59.5833 32.5 59.5833Z" fill="white"/>
</svg>
