<svg width="32" height="32" viewBox="0 0 32 32" fill="none" xmlns="http://www.w3.org/2000/svg">
<path d="M31.5312 29.3789L21.3867 19.2344C22.9609 17.1992 23.8125 14.7109 23.8125 12.0938C23.8125 8.96094 22.5898 6.02344 20.3789 3.80859C18.168 1.59375 15.2227 0.375 12.0938 0.375C8.96484 0.375 6.01953 1.59766 3.80859 3.80859C1.59375 6.01953 0.375 8.96094 0.375 12.0938C0.375 15.2227 1.59766 18.168 3.80859 20.3789C6.01953 22.5938 8.96094 23.8125 12.0938 23.8125C14.7109 23.8125 17.1953 22.9609 19.2305 21.3906L29.375 31.5312C29.4047 31.561 29.4401 31.5846 29.4789 31.6007C29.5178 31.6168 29.5595 31.6251 29.6016 31.6251C29.6436 31.6251 29.6853 31.6168 29.7242 31.6007C29.7631 31.5846 29.7984 31.561 29.8281 31.5312L31.5312 29.832C31.561 29.8023 31.5846 29.767 31.6007 29.7281C31.6168 29.6892 31.6251 29.6475 31.6251 29.6055C31.6251 29.5634 31.6168 29.5217 31.6007 29.4828C31.5846 29.444 31.561 29.4087 31.5312 29.3789ZM18.2812 18.2812C16.625 19.9336 14.4297 20.8438 12.0938 20.8438C9.75781 20.8438 7.5625 19.9336 5.90625 18.2812C4.25391 16.625 3.34375 14.4297 3.34375 12.0938C3.34375 9.75781 4.25391 7.55859 5.90625 5.90625C7.5625 4.25391 9.75781 3.34375 12.0938 3.34375C14.4297 3.34375 16.6289 4.25 18.2812 5.90625C19.9336 7.5625 20.8438 9.75781 20.8438 12.0938C20.8438 14.4297 19.9336 16.6289 18.2812 18.2812Z" fill="#D7D7D7"/>
</svg>
